<?xml version="1.0" encoding="utf-8"?>
<svg viewBox="0 0 2766 1818" xmlns="http://www.w3.org/2000/svg">
  <g transform="matrix(0.163145, 0, 0, -0.163145, -867.567383, 2393.370605)" fill="#000000" stroke="none" style="">
    <path d="M7698 11301 c-108 -35 -564 -305 -603 -356 -35 -45 -55 -114 -55 -186 0 -105 68 -149 150 -97 19 12 215 131 435 264 220 133 401 248 403 256 1 7 -19 30 -45 50 -110 82 -188 101 -285 69z"/>
    <path d="M8363 11296 c-151 -49 -235 -160 -248 -325 -2 -35 -6 -65 -7 -66 -38 -32 -871 -515 -888 -515 -5 0 -33 -24 -63 -52 -46 -46 -55 -61 -66 -114 -18 -85 -11 -518 8 -554 14 -24 188 -212 203 -218 4 -2 21 19 38 46 33 54 80 94 136 118 l36 15 -23 27 c-13 15 -52 57 -86 95 -50 54 -63 74 -63 100 0 55 45 252 66 288 15 25 54 54 154 113 74 43 265 155 424 248 l289 168 66 -26 c57 -23 75 -26 138 -21 96 7 169 41 233 108 65 68 92 138 92 240 1 136 -73 249 -200 307 -68 31 -176 39 -239 18z m205 -128 c158 -75 163 -307 8 -403 -43 -26 -59 -30 -115 -29 -104 1 -164 41 -216 143 -26 52 -18 156 18 210 30 46 90 89 139 102 45 11 115 1 166 -23z"/>
    <path d="M6469 11087 c-146 -61 -227 -188 -217 -342 8 -118 57 -198 174 -281 l29 -21 5 -564 c6 -633 2 -605 81 -673 55 -48 445 -266 475 -266 24 0 281 57 294 65 4 3 -6 31 -23 62 -28 51 -32 67 -32 135 0 65 -3 77 -15 73 -56 -17 -190 -45 -217 -45 -24 0 -45 11 -81 43 -27 23 -75 64 -107 91 -94 81 -90 51 -92 606 l-2 485 47 31 c158 103 198 324 87 484 -32 46 -111 103 -174 125 -65 23 -165 19 -232 -8z m199 -101 c102 -36 156 -111 156 -215 -1 -249 -320 -326 -437 -106 -32 60 -29 157 6 218 57 97 171 140 275 103z"/>
    <path d="M8742 10589 c-73 -29 -122 -77 -122 -121 0 -19 6 -42 13 -51 6 -9 57 -39 112 -68 55 -28 129 -68 165 -89 36 -20 92 -52 125 -70 33 -17 157 -86 276 -151 118 -65 222 -119 231 -119 21 0 26 17 34 108 8 105 -17 173 -86 235 -49 44 -314 203 -498 299 -107 55 -160 61 -250 27z"/>
    <path d="M6081 10469 c-93 -42 -126 -71 -158 -136 l-28 -58 -3 -288 c-2 -167 1 -316 7 -355 12 -80 45 -130 115 -181 42 -30 58 -36 104 -36 47 0 57 4 72 25 17 23 18 45 9 345 -19 648 -23 710 -39 712 -8 1 -44 -11 -79 -28z"/>
    <path d="M8255 10256 c-22 -7 -55 -21 -74 -30 -74 -39 -398 -235 -408 -248 -11 -14 -93 -275 -93 -297 0 -9 8 -11 25 -7 38 10 151 -21 198 -53 l43 -29 33 112 c18 61 39 120 46 130 17 22 256 106 302 106 19 0 55 -11 81 -24 116 -59 808 -459 820 -474 6 -9 12 -27 12 -40 0 -13 13 -52 30 -87 123 -259 482 -259 618 0 23 44 27 62 27 145 0 82 -4 103 -26 150 -62 132 -209 214 -352 196 -52 -7 -95 -24 -172 -70 l-30 -18 -165 92 c-91 51 -190 106 -220 123 -30 16 -158 91 -285 165 -298 176 -323 185 -410 158z m1374 -567 c155 -35 229 -210 145 -345 -18 -30 -48 -60 -79 -79 -43 -26 -57 -30 -121 -29 -75 0 -100 10 -157 63 -52 47 -69 95 -65 176 4 84 33 138 98 181 61 41 109 50 179 33z"/>
    <path d="M10847 10112 c-16 -3 -17 -64 -17 -893 l0 -890 538 3 537 4 75 27 c131 48 216 119 269 224 58 116 68 273 24 406 -24 76 -32 88 -103 158 l-76 75 68 63 c95 87 129 159 135 284 3 50 0 119 -6 152 -24 130 -115 257 -226 317 -27 14 -88 37 -135 50 -83 22 -94 23 -576 23 -269 0 -498 -1 -507 -3z m913 -430 c104 -52 109 -214 8 -269 -29 -16 -60 -18 -258 -18 l-225 0 -3 147 -3 147 28 4 c16 2 116 5 223 5 168 2 200 0 230 -16z m-15 -650 c64 -22 95 -65 95 -133 0 -61 -23 -111 -64 -135 -28 -17 -53 -19 -261 -19 l-230 0 -3 144 c-2 101 1 147 9 152 6 4 100 7 208 8 162 0 205 -2 246 -17z"/>
    <path d="M12555 10108 c-2 -7 -4 -409 -2 -893 l2 -880 222 -3 221 -2 7 31 c4 17 6 124 5 237 -1 114 -2 228 -1 255 l1 47 169 0 169 0 51 -90 c28 -49 51 -92 51 -94 0 -3 15 -31 34 -63 18 -32 50 -89 71 -128 20 -38 53 -98 73 -132 l36 -63 214 0 213 0 -37 68 c-20 37 -61 110 -89 162 -29 52 -67 122 -85 155 -18 33 -45 83 -60 110 -69 125 -80 146 -80 154 0 5 19 21 41 36 111 73 194 178 233 297 102 308 -38 628 -325 742 -143 57 -158 58 -661 63 -387 4 -469 3 -473 -9z m878 -368 c54 -16 111 -71 137 -132 44 -102 9 -243 -75 -301 -54 -37 -134 -48 -325 -45 l-155 3 -3 235 c-1 129 0 241 3 248 4 12 38 13 193 9 103 -3 204 -10 225 -17z"/>
    <path d="M15054 10064 c-14 -31 -81 -194 -149 -363 -148 -365 -290 -714 -352 -866 -42 -103 -189 -465 -200 -493 -4 -10 46 -12 242 -10 l248 3 54 140 c30 77 61 160 70 185 8 25 20 51 25 58 8 9 82 12 307 12 163 0 301 -4 307 -8 6 -4 42 -92 81 -197 l69 -190 248 -3 c197 -2 247 0 243 10 -2 7 -91 227 -197 488 -106 261 -237 585 -292 720 -54 135 -129 318 -165 408 l-66 162 -224 0 -224 0 -25 -56z m266 -567 c0 -7 13 -46 29 -87 56 -145 111 -296 111 -308 0 -16 -306 -17 -315 -1 -4 5 14 65 40 132 26 67 59 154 73 192 14 39 30 76 35 82 10 14 27 8 27 -10z"/>
    <path d="M16527 10112 c-24 -3 -28 -7 -23 -25 3 -12 6 -413 6 -890 l0 -868 498 3 c474 4 501 5 576 26 157 44 288 122 393 237 155 168 233 449 205 733 -24 231 -89 393 -213 526 -120 128 -246 201 -414 239 -83 19 -124 20 -545 21 -250 1 -468 0 -483 -2z m873 -446 c179 -37 289 -154 321 -339 33 -199 -38 -410 -168 -496 -87 -58 -133 -66 -373 -66 l-215 0 -3 445 c-1 245 0 451 3 458 6 18 348 17 435 -2z"/>
    <path d="M20112 10108 c-10 -13 -71 -160 -277 -668 -48 -118 -117 -287 -152 -375 -204 -498 -293 -719 -293 -727 0 -4 110 -8 243 -8 l244 0 17 43 c9 23 42 109 72 192 31 82 61 153 67 157 7 4 145 8 308 8 225 0 299 -3 307 -12 5 -7 40 -97 77 -200 l68 -188 244 0 c147 0 243 4 243 10 0 5 -34 94 -76 197 -353 873 -452 1115 -547 1348 l-93 230 -221 3 c-170 2 -223 -1 -231 -10z m310 -795 c38 -103 71 -195 71 -203 2 -13 -23 -15 -155 -18 -147 -2 -158 -1 -158 16 0 10 27 90 61 178 33 87 64 171 69 186 13 41 21 51 32 40 6 -6 42 -95 80 -199z"/>
    <path d="M21563 10113 l-23 -4 0 -890 0 -889 225 0 225 0 0 895 0 895 -202 -1 c-112 -1 -213 -4 -225 -6z"/>
    <path d="M7632 9509 c-99 -23 -134 -39 -160 -76 -24 -34 -72 -189 -72 -232 0 -47 31 -98 105 -173 88 -90 117 -98 240 -68 159 39 177 55 220 202 30 101 31 128 6 176 -25 47 -147 167 -184 181 -37 14 -56 13 -155 -10z"/>
    <path d="M8205 9498 c-71 -16 -131 -31 -132 -32 -1 -1 13 -30 30 -66 27 -54 32 -75 32 -137 0 -67 2 -72 19 -67 10 3 64 16 120 29 116 26 129 24 190 -34 23 -21 63 -58 89 -82 91 -81 87 -52 87 -601 l0 -483 -50 -43 c-64 -55 -95 -104 -117 -182 -42 -152 45 -329 194 -397 81 -37 196 -36 282 2 253 114 271 477 31 612 l-48 27 -6 67 c-4 37 -6 291 -5 563 l2 495 -26 43 c-26 45 -92 97 -202 158 -33 18 -111 62 -173 97 -133 74 -133 74 -317 31z m724 -1582 c123 -78 148 -236 55 -344 -50 -59 -99 -82 -174 -82 -99 0 -167 40 -209 125 -65 131 2 278 149 326 44 15 137 1 179 -25z"/>
    <path d="M5703 9396 c-199 -65 -295 -295 -201 -482 32 -65 125 -148 188 -169 89 -30 223 -19 287 22 21 14 33 9 180 -70 147 -79 408 -224 496 -275 345 -201 367 -212 427 -212 14 1 48 8 75 18 55 19 432 242 458 270 13 14 97 271 97 296 0 3 -26 6 -58 6 -73 0 -111 11 -167 49 l-44 30 -16 -57 c-43 -152 -56 -182 -87 -198 -61 -31 -234 -84 -277 -84 -39 0 -78 19 -300 144 -141 79 -278 156 -306 171 -321 176 -305 164 -305 230 0 118 -73 232 -185 289 -68 34 -193 45 -262 22z m191 -110 c48 -20 107 -75 127 -121 24 -52 24 -138 0 -190 -22 -47 -84 -109 -124 -124 -16 -6 -56 -11 -91 -11 -208 0 -307 262 -151 399 21 18 52 39 69 47 41 17 128 18 170 0z"/>
    <path d="M18440 9070 l0 -210 343 2 342 3 3 208 2 207 -345 0 -345 0 0 -210z"/>
    <path d="M9210 9043 l-30 -28 10 -515 c6 -283 14 -518 19 -523 11 -11 112 29 168 67 34 23 57 50 78 91 l30 59 0 345 0 346 -27 47 c-39 66 -146 138 -204 138 -8 0 -27 -12 -44 -27z"/>
    <path d="M8061 8991 c-27 -52 -82 -105 -138 -132 l-44 -21 23 -27 c13 -14 49 -53 80 -87 64 -69 74 -94 59 -150 -6 -22 -17 -74 -25 -116 -16 -82 -33 -123 -62 -150 -11 -9 -190 -114 -398 -233 -209 -120 -398 -228 -419 -242 l-39 -25 -62 34 c-56 30 -69 33 -146 33 -110 0 -182 -27 -249 -95 -76 -76 -96 -126 -96 -245 0 -90 3 -105 28 -153 37 -71 97 -128 165 -160 47 -21 72 -26 142 -26 73 0 93 4 144 29 110 52 187 159 201 275 4 42 11 59 28 70 148 93 505 300 853 493 111 62 167 115 183 174 16 55 14 542 -2 569 -7 12 -56 67 -109 123 l-97 102 -20 -40z m-1061 -1259 c70 -43 104 -99 108 -180 5 -89 -30 -162 -100 -208 -222 -149 -475 140 -302 345 69 82 198 101 294 43z"/>
    <path d="M5830 8524 c-6 -14 -10 -61 -10 -104 0 -137 45 -200 217 -304 51 -31 94 -56 97 -56 2 0 44 -23 93 -51 203 -117 263 -144 328 -143 66 0 146 33 198 82 35 33 37 83 5 114 -13 11 -117 71 -233 132 -115 62 -311 167 -435 234 -124 67 -231 122 -238 122 -7 0 -17 -12 -22 -26z"/>
    <path d="M8136 7785 c-92 -58 -328 -198 -576 -343 -164 -95 -210 -127 -210 -147 0 -7 22 -29 49 -49 107 -79 188 -95 295 -57 57 20 382 200 516 286 85 54 121 116 128 219 3 62 1 75 -20 106 -38 56 -74 53 -182 -15z"/>
  </g>
</svg>